<svg width="34" height="34" viewBox="0 0 34 34" fill="none" xmlns="http://www.w3.org/2000/svg">
<path d="M23.3663 20.6829L23.3663 11.1369C23.3662 10.9879 23.307 10.8449 23.2016 10.7395C23.0962 10.6341 22.9532 10.5749 22.8042 10.5748L13.2582 10.5748C13.1126 10.5799 12.9746 10.6414 12.8734 10.7463C12.7721 10.8511 12.7156 10.9912 12.7156 11.1369C12.7156 11.2827 12.7721 11.4227 12.8734 11.5276C12.9746 11.6325 13.1126 11.6939 13.2582 11.6991L21.4459 11.6997L10.7392 22.4064C10.6337 22.5119 10.5744 22.655 10.5744 22.8042C10.5744 22.9534 10.6337 23.0965 10.7392 23.2019C10.8447 23.3074 10.9877 23.3667 11.1369 23.3667C11.2861 23.3667 11.4292 23.3074 11.5347 23.2019L22.2414 12.4952L22.242 20.6829C22.2472 20.8285 22.3086 20.9665 22.4135 21.0677C22.5184 21.169 22.6584 21.2255 22.8042 21.2255C22.9499 21.2255 23.09 21.169 23.1948 21.0677C23.2997 20.9665 23.3612 20.8285 23.3663 20.6829Z" fill="white" stroke="white" stroke-width="1.5"/>
</svg>
