<svg width="32" height="32" viewBox="0 0 32 32" fill="none" xmlns="http://www.w3.org/2000/svg">
<path d="M15.9875 2.38428C8.25938 2.38115 2 8.6374 2 16.3593C2 22.4655 5.91562 27.6562 11.3687 29.5624C12.1031 29.7468 11.9906 29.2249 11.9906 28.8687V26.4468C7.75 26.9437 7.57812 24.1374 7.29375 23.6687C6.71875 22.6874 5.35938 22.4374 5.76562 21.9687C6.73125 21.4718 7.71562 22.0937 8.85625 23.778C9.68125 24.9999 11.2906 24.7937 12.1062 24.5905C12.2844 23.8562 12.6656 23.1999 13.1906 22.6905C8.79688 21.903 6.96562 19.2218 6.96562 16.0343C6.96562 14.4874 7.475 13.0655 8.475 11.9187C7.8375 10.028 8.53438 8.40928 8.62813 8.16865C10.4438 8.00615 12.3312 9.46865 12.4781 9.58428C13.5094 9.30615 14.6875 9.15928 16.0063 9.15928C17.3313 9.15928 18.5125 9.3124 19.5531 9.59365C19.9062 9.3249 21.6562 8.06865 23.3438 8.22178C23.4344 8.4624 24.1156 10.0437 23.5156 11.9093C24.5281 13.0593 25.0438 14.4937 25.0438 16.0437C25.0438 19.2374 23.2 21.9218 18.7938 22.6968C19.1712 23.0679 19.4708 23.5106 19.6753 23.9988C19.8797 24.4871 19.9848 25.0112 19.9844 25.5405V29.0562C20.0094 29.3374 19.9844 29.6155 20.4531 29.6155C25.9875 27.7499 29.9719 22.5218 29.9719 16.3624C29.9719 8.6374 23.7094 2.38428 15.9875 2.38428Z" fill="white"/>
</svg>
