<svg width="176" height="50" viewBox="0 0 176 50" fill="none" xmlns="http://www.w3.org/2000/svg">
<path fill-rule="evenodd" clip-rule="evenodd" d="M29.3369 21.8612L22.6367 4.7499H16.0654C11.8237 4.7499 9.79883 7.30502 9.79883 11.5468V37.6718C9.79883 42.1545 11.8719 44.4198 16.0654 44.4198H22.3955L29.3369 24.8983V44.4198H33V4.7499H29.3369V21.8612ZM18.5713 40.8046H16.0654C14.3302 40.8046 13.4619 39.7444 13.4619 37.6718V11.5946C13.4619 9.61839 14.3302 8.46181 16.0654 8.46181H18.5713V40.8046ZM26.2031 22.8261L22.2354 33.5341V13.287L26.2031 22.8261Z" fill="#FDB12F"/>
<path d="M70.44 40L56.44 25.52L70.16 12.24H75.04L60.24 26.48V24.4L75.44 40H70.44ZM53.28 40V12.24H57.04V40H53.28ZM82.0494 40.4C80.156 40.4 78.4494 39.9733 76.9294 39.12C75.4094 38.24 74.2094 37.0533 73.3294 35.56C72.4494 34.0667 72.0094 32.3733 72.0094 30.48C72.0094 28.6133 72.436 26.9333 73.2894 25.44C74.1694 23.9467 75.3427 22.7733 76.8094 21.92C78.3027 21.04 79.9694 20.6 81.8094 20.6C83.5694 20.6 85.116 21 86.4494 21.8C87.8094 22.6 88.8627 23.7067 89.6094 25.12C90.3827 26.5333 90.7694 28.1333 90.7694 29.92C90.7694 30.1867 90.756 30.48 90.7294 30.8C90.7027 31.0933 90.6494 31.44 90.5694 31.84H74.5294V28.84H88.6494L87.3294 30C87.3294 28.72 87.1027 27.64 86.6494 26.76C86.196 25.8533 85.556 25.16 84.7294 24.68C83.9027 24.1733 82.9027 23.92 81.7294 23.92C80.5027 23.92 79.4227 24.1867 78.4894 24.72C77.556 25.2533 76.836 26 76.3294 26.96C75.8227 27.92 75.5694 29.0533 75.5694 30.36C75.5694 31.6933 75.836 32.8667 76.3694 33.88C76.9027 34.8667 77.6627 35.64 78.6494 36.2C79.636 36.7333 80.7694 37 82.0494 37C83.116 37 84.0894 36.8133 84.9694 36.44C85.876 36.0667 86.6494 35.5067 87.2894 34.76L89.6094 37.12C88.7027 38.1867 87.5827 39 86.2494 39.56C84.9427 40.12 83.5427 40.4 82.0494 40.4ZM90.6947 40V21H94.2947V40H90.6947ZM103.535 40V28.52C103.535 27.1067 103.095 26 102.215 25.2C101.361 24.3733 100.281 23.96 98.9747 23.96C98.0947 23.96 97.308 24.1467 96.6147 24.52C95.9214 24.8933 95.3614 25.4133 94.9347 26.08C94.508 26.7467 94.2947 27.5467 94.2947 28.48L92.8147 27.76C92.8147 26.32 93.1214 25.0667 93.7347 24C94.3747 22.9333 95.2414 22.1067 96.3347 21.52C97.428 20.9067 98.6547 20.6 100.015 20.6C101.348 20.6 102.548 20.8933 103.615 21.48C104.708 22.0667 105.561 22.8933 106.175 23.96C106.815 25.0267 107.135 26.2933 107.135 27.76V40H103.535ZM116.375 40V28.52C116.375 27.1067 115.935 26 115.055 25.2C114.201 24.3733 113.135 23.96 111.855 23.96C110.975 23.96 110.175 24.1467 109.455 24.52C108.761 24.8933 108.201 25.4133 107.775 26.08C107.348 26.7467 107.135 27.5467 107.135 28.48L105.095 27.76C105.175 26.2933 105.561 25.04 106.255 24C106.975 22.9333 107.895 22.1067 109.015 21.52C110.135 20.9067 111.361 20.6 112.695 20.6C114.081 20.6 115.321 20.8933 116.415 21.48C117.508 22.0667 118.375 22.8933 119.015 23.96C119.681 25.0267 120.015 26.3067 120.015 27.8V40H116.375Z" fill="white"/>
<path d="M128.953 40.4C127.193 40.4 125.62 39.9733 124.233 39.12C122.847 38.24 121.74 37.0533 120.913 35.56C120.113 34.0667 119.713 32.3867 119.713 30.52C119.713 28.6533 120.113 26.9733 120.913 25.48C121.74 23.9867 122.847 22.8 124.233 21.92C125.62 21.04 127.193 20.6 128.953 20.6C130.367 20.6 131.647 20.9067 132.793 21.52C133.94 22.1067 134.86 22.9333 135.553 24C136.273 25.04 136.673 26.2533 136.753 27.64V33.36C136.673 34.72 136.287 35.9333 135.593 37C134.9 38.0667 133.98 38.9067 132.833 39.52C131.687 40.1067 130.393 40.4 128.953 40.4ZM129.553 37C130.753 37 131.793 36.72 132.673 36.16C133.58 35.6 134.287 34.84 134.793 33.88C135.3 32.8933 135.553 31.7733 135.553 30.52C135.553 29.2133 135.287 28.08 134.753 27.12C134.247 26.16 133.54 25.4 132.633 24.84C131.753 24.28 130.713 24 129.513 24C128.313 24 127.26 24.28 126.353 24.84C125.447 25.4 124.727 26.1733 124.193 27.16C123.687 28.12 123.433 29.2267 123.433 30.48C123.433 31.76 123.687 32.8933 124.193 33.88C124.727 34.84 125.447 35.6 126.353 36.16C127.287 36.72 128.353 37 129.553 37ZM138.953 40H135.313V34.88L135.993 30.24L135.313 25.64V11.44H138.953V40ZM148.995 40.4C147.101 40.4 145.395 39.9733 143.875 39.12C142.355 38.24 141.155 37.0533 140.275 35.56C139.395 34.0667 138.955 32.3733 138.955 30.48C138.955 28.6133 139.381 26.9333 140.235 25.44C141.115 23.9467 142.288 22.7733 143.755 21.92C145.248 21.04 146.915 20.6 148.755 20.6C150.515 20.6 152.061 21 153.395 21.8C154.755 22.6 155.808 23.7067 156.555 25.12C157.328 26.5333 157.715 28.1333 157.715 29.92C157.715 30.1867 157.701 30.48 157.675 30.8C157.648 31.0933 157.595 31.44 157.515 31.84H141.475V28.84H155.595L154.275 30C154.275 28.72 154.048 27.64 153.595 26.76C153.141 25.8533 152.501 25.16 151.675 24.68C150.848 24.1733 149.848 23.92 148.675 23.92C147.448 23.92 146.368 24.1867 145.435 24.72C144.501 25.2533 143.781 26 143.275 26.96C142.768 27.92 142.515 29.0533 142.515 30.36C142.515 31.6933 142.781 32.8667 143.315 33.88C143.848 34.8667 144.608 35.64 145.595 36.2C146.581 36.7333 147.715 37 148.995 37C150.061 37 151.035 36.8133 151.915 36.44C152.821 36.0667 153.595 35.5067 154.235 34.76L156.555 37.12C155.648 38.1867 154.528 39 153.195 39.56C151.888 40.12 150.488 40.4 148.995 40.4ZM163.848 40L155.128 21H159.128L166.128 37.04H163.808L170.848 21H174.688L165.968 40H163.848Z" fill="#FDB12F"/>
</svg>
