<svg width="64" height="64" viewBox="0 0 64 64" fill="none" xmlns="http://www.w3.org/2000/svg">
<path d="M22 5.99992V3.99992C22 3.46949 22.2108 2.96078 22.5858 2.58571C22.9609 2.21063 23.4696 1.99992 24 1.99992C24.5305 1.99992 25.0392 2.21063 25.4143 2.58571C25.7893 2.96078 26 3.46949 26 3.99992V5.99992C26 6.53035 25.7893 7.03906 25.4143 7.41413C25.0392 7.78921 24.5305 7.99992 24 7.99992C23.4696 7.99992 22.9609 7.78921 22.5858 7.41413C22.2108 7.03906 22 6.53035 22 5.99992ZM4.00004 25.9999H6.00004C6.53048 25.9999 7.03918 25.7892 7.41426 25.4141C7.78933 25.0391 8.00004 24.5304 8.00004 23.9999C8.00004 23.4695 7.78933 22.9608 7.41426 22.5857C7.03918 22.2106 6.53048 21.9999 6.00004 21.9999H4.00004C3.46961 21.9999 2.9609 22.2106 2.58583 22.5857C2.21076 22.9608 2.00004 23.4695 2.00004 23.9999C2.00004 24.5304 2.21076 25.0391 2.58583 25.4141C2.9609 25.7892 3.46961 25.9999 4.00004 25.9999ZM31.105 9.78992C31.3401 9.90763 31.596 9.97784 31.8582 9.99656C32.1204 10.0153 32.3837 9.98213 32.6331 9.89901C32.8824 9.81588 33.113 9.68442 33.3115 9.51213C33.51 9.33984 33.6726 9.1301 33.79 8.89492L35.79 4.89492C36.0274 4.42051 36.0666 3.87124 35.899 3.36794C35.7314 2.86464 35.3707 2.44854 34.8963 2.21117C34.4219 1.9738 33.8726 1.93461 33.3693 2.10222C32.866 2.26983 32.4499 2.63051 32.2125 3.10492L30.2125 7.10492C30.0947 7.3398 30.0244 7.5956 30.0055 7.85768C29.9866 8.11977 30.0195 8.38301 30.1024 8.63236C30.1853 8.88171 30.3165 9.11228 30.4886 9.3109C30.6606 9.50952 30.8701 9.6723 31.105 9.78992ZM7.10504 30.2124L3.10504 32.2124C2.63064 32.4498 2.26996 32.8659 2.10234 33.3692C1.93473 33.8725 1.97392 34.4218 2.21129 34.8962C2.44866 35.3706 2.86477 35.7313 3.36807 35.8989C3.87137 36.0665 4.42064 36.0273 4.89504 35.7899L8.89504 33.7899C9.12994 33.6724 9.3394 33.5097 9.51144 33.3113C9.68348 33.1128 9.81475 32.8824 9.89774 32.6331C9.98073 32.3839 10.0138 32.1208 9.99513 31.8588C9.97644 31.5968 9.90633 31.3411 9.78879 31.1062C9.67126 30.8713 9.50861 30.6618 9.31013 30.4898C9.11165 30.3177 8.88123 30.1865 8.63202 30.1035C8.38281 30.0205 8.11969 29.9874 7.8577 30.0061C7.5957 30.0248 7.33994 30.0949 7.10504 30.2124ZM54.8275 45.9999C55.1991 46.3714 55.4938 46.8124 55.6949 47.2977C55.8959 47.7831 55.9994 48.3033 55.9994 48.8287C55.9994 49.354 55.8959 49.8743 55.6949 50.3596C55.4938 50.845 55.1991 51.286 54.8275 51.6574L51.6575 54.8274C51.2861 55.199 50.8451 55.4937 50.3597 55.6947C49.8744 55.8958 49.3542 55.9993 48.8288 55.9993C48.3034 55.9993 47.7832 55.8958 47.2978 55.6947C46.8125 55.4937 46.3715 55.199 46 54.8274L33.175 41.9999L28.75 53.5224C28.75 53.5474 28.73 53.5749 28.7175 53.6024C28.4115 54.3161 27.9022 54.9239 27.2532 55.3502C26.6041 55.7765 25.844 56.0025 25.0675 55.9999H24.87C24.0602 55.9656 23.2804 55.6835 22.6362 55.1917C21.9919 54.6999 21.5141 54.0221 21.2675 53.2499L8.20004 13.2299C7.97571 12.53 7.94856 11.7818 8.12157 11.0675C8.29457 10.3532 8.66104 9.70033 9.18075 9.18062C9.70045 8.66092 10.3533 8.29445 11.0676 8.12144C11.782 7.94844 12.5301 7.97559 13.23 8.19992L53.25 21.2674C54.0149 21.5233 54.6846 22.0044 55.1711 22.6476C55.6577 23.2908 55.9385 24.0661 55.9766 24.8717C56.0147 25.6774 55.8084 26.4757 55.3847 27.162C54.9611 27.8483 54.3398 28.3905 53.6025 28.7174L53.5225 28.7499L42 33.1724L54.8275 45.9999ZM52 48.8274L39.1725 35.9999C38.7108 35.5391 38.3688 34.9723 38.1764 34.3489C37.9839 33.7256 37.9469 33.0646 38.0684 32.4237C38.1899 31.7828 38.4664 31.1813 38.8736 30.6717C39.2809 30.162 39.8067 29.7598 40.405 29.4999L40.485 29.4649L51.9725 25.0549L12 11.9999L25.05 51.9649L29.4625 40.4649C29.4625 40.4374 29.4825 40.4099 29.495 40.3824C29.755 39.7845 30.1572 39.2592 30.6665 38.8522C31.1759 38.4453 31.777 38.169 32.4175 38.0474C32.6649 38.0016 32.9159 37.9781 33.1675 37.9774C34.2274 37.9786 35.2434 38.4003 35.9925 39.1499L48.8275 51.9999L52 48.8274Z" fill="white"/>
</svg>
